# xmcd CD database file
# Copyright (C) 1996 Ti Kan
#
# Track frame offsets:
#	150
#	17520
#	36215
#	58238
#	77473
#	93323
#	113033
#	129888
#	146338
#	167673
#
# Disc length: 2479 seconds
#
# Revision: 1
# Processed by: cddbd v1.4b41PL1 Copyright (c) Steve Scherf et al.
# Submitted via: EasyCD 2.21 - (C) 1996 Greg Leichner
#
DISCID=7209ad0a
DTITLE=Claudia Scott - Flowers and Thorns
DYEAR=1900
DGENRE=
TTITLE0=Green Bridge
TTITLE1=Who Cries Shame
TTITLE2=Flowers And Thorns
TTITLE3=Heard You On My Radio
TTITLE4=Hearts On Fire
TTITLE5=Let's Kiss Tonight
TTITLE6=Why So Afraid Tom?
TTITLE7=Into The Abyss
TTITLE8=Fairytale
TTITLE9=Paper Hearts
EXTD=
EXTT0=
EXTT1=
EXTT2=
EXTT3=
EXTT4=
EXTT5=
EXTT6=
EXTT7=
EXTT8=
EXTT9=
PLAYORDER=
